<svg xmlns="http://www.w3.org/2000/svg" viewBox="0 0 64 64" role="img" aria-labelledby="pigLogoTitle pigLogoDesc">
  <title id="pigLogoTitle">だにえるキャリブー ロゴ</title>
  <desc id="pigLogoDesc">黒豚をモチーフにした、落ち着いた雰囲気のロゴです。</desc>
  <rect x="4" y="4" width="56" height="56" rx="18" fill="#f5f0e8"/>
  <rect x="4" y="4" width="56" height="56" rx="18" fill="none" stroke="#e1d8cc"/>
  <path d="M20.1 24.3 22.8 15.8C23.4 13.9 25.7 13.2 27.2 14.4L31.3 17.8C32.4 18.7 32.6 20.2 31.8 21.4L26.6 28.7C24.8 31.1 21 30.2 20.4 27.9 20.1 26.7 20 25.5 20.1 24.3Z" fill="#151515"/>
  <path d="M43.9 24.3 41.2 15.8C40.6 13.9 38.3 13.2 36.8 14.4L32.7 17.8C31.6 18.7 31.4 20.2 32.2 21.4L37.4 28.7C39.2 31.1 43 30.2 43.6 27.9 43.9 26.7 44 25.5 43.9 24.3Z" fill="#151515"/>
  <path d="M32 18C22.7 18 16 24.9 16 33.3C16 42.9 23.2 50 32.1 50C41 50 48 43 48 34C48 25.2 41 18 32 18Z" fill="#151515"/>
  <ellipse cx="32" cy="38.1" rx="9.6" ry="7" fill="#2b2b2b"/>
  <ellipse cx="28.4" cy="38.1" rx="1.5" ry="2.2" fill="#f5f0e8"/>
  <ellipse cx="35.6" cy="38.1" rx="1.5" ry="2.2" fill="#f5f0e8"/>
  <circle cx="26.1" cy="31.6" r="1.5" fill="#f5f0e8"/>
  <circle cx="37.9" cy="31.6" r="1.5" fill="#f5f0e8"/>
  <path d="M29.2 43.9C30 44.6 30.9 45 32 45C33.1 45 34 44.6 34.8 43.9" fill="none" stroke="#f5f0e8" stroke-linecap="round" stroke-width="1.8"/>
  <path d="M22.4 20.8C23.4 18.1 24.4 16 25.4 14.5" fill="none" stroke="#ffffff" stroke-linecap="round" stroke-opacity="0.28" stroke-width="1.4"/>
  <path d="M21.5 45.3C24.4 47.8 28 49 32 49C35.9 49 39.5 47.8 42.4 45.3" fill="none" stroke="#ffffff" stroke-linecap="round" stroke-opacity="0.18" stroke-width="1.4"/>
</svg>
